<svg width="12" height="13" viewBox="0 0 12 13" fill="none" xmlns="http://www.w3.org/2000/svg">
<path fill-rule="evenodd" clip-rule="evenodd" d="M5 0C4.17157 0 3.5 0.671573 3.5 1.5V2.5H2H1.85187H0.666687C0.390545 2.5 0.166687 2.72386 0.166687 3C0.166687 3.27614 0.390545 3.5 0.666687 3.5H1.5V11.3C1.5 11.7432 1.66745 12.1729 1.97267 12.4934C2.27867 12.8147 2.69905 13 3.14286 13H8.85714C9.30095 13 9.72133 12.8147 10.0273 12.4934C10.3325 12.1729 10.5 11.7432 10.5 11.3V3.5H11.3334C11.6095 3.5 11.8334 3.27614 11.8334 3C11.8334 2.72386 11.6095 2.5 11.3334 2.5H10H8.5V1.5C8.5 0.671573 7.82843 0 7 0H5ZM7.5 2.5V1.5C7.5 1.22386 7.27614 1 7 1H5C4.72386 1 4.5 1.22386 4.5 1.5V2.5H6H7.5ZM3.5 3.5H2.5V11.3C2.5 11.4933 2.57336 11.6741 2.6968 11.8037C2.81946 11.9325 2.98045 12 3.14286 12H8.85714C9.01955 12 9.18054 11.9325 9.3032 11.8037C9.42664 11.6741 9.5 11.4933 9.5 11.3V3.5H8.5H8H6H4H3.5ZM5 6C5 5.72386 4.77614 5.5 4.5 5.5C4.22386 5.5 4 5.72386 4 6V10C4 10.2761 4.22386 10.5 4.5 10.5C4.77614 10.5 5 10.2761 5 10V6ZM7.5 5.5C7.77614 5.5 8 5.72386 8 6V10C8 10.2761 7.77614 10.5 7.5 10.5C7.22386 10.5 7 10.2761 7 10V6C7 5.72386 7.22386 5.5 7.5 5.5Z" fill="#4A4A4A"/>
</svg>
