<svg width="15" height="14" viewBox="0 0 15 14" fill="none" xmlns="http://www.w3.org/2000/svg">
<path d="M13.5 7C13.5 5.05544 12.4908 3.34659 10.9677 2.36856C10.4328 2.02641 9.84092 1.77825 9.21743 1.63717C8.31126 1.43214 7.36792 1.46 6.47543 1.71815C5.58294 1.97631 4.77039 2.45634 4.1136 3.11346L4.10235 3.12437L1.92889 5.16667H4.66663C4.94277 5.16667 5.16663 5.39053 5.16663 5.66667C5.16663 5.94281 4.94277 6.16667 4.66663 6.16667H0.666626C0.591757 6.16667 0.520731 6.15022 0.456968 6.12073C0.407079 6.09771 0.360275 6.06608 0.318839 6.0259C0.303248 6.0108 0.288638 5.9947 0.275112 5.9777C0.245821 5.94091 0.222494 5.90103 0.205091 5.85933C0.181031 5.80166 0.168295 5.74051 0.16678 5.67919C0.166676 5.67502 0.166625 5.67084 0.166626 5.66667V1.66667C0.166626 1.39053 0.390484 1.16667 0.666626 1.16667C0.942768 1.16667 1.16663 1.39053 1.16663 1.66667V4.51073L3.41198 2.40088C4.18719 1.62718 5.14537 1.06188 6.19757 0.757533C6.78569 0.587418 7.3925 0.50192 7.99996 0.501573V0.5C9.32004 0.5 10.5482 0.893516 11.5736 1.56964C11.8357 1.74191 12.0858 1.93348 12.3218 2.14322C13.1425 2.87265 13.765 3.7981 14.1313 4.8332C14.1354 4.84479 14.1391 4.85643 14.1423 4.8681C14.374 5.53594 14.5 6.25326 14.5 7C14.5 10.5899 11.5898 13.5 7.99996 13.5C6.07483 13.5 4.34466 12.6624 3.15518 11.3335C2.59593 10.7086 2.15549 9.97449 1.86995 9.16662C1.77793 8.90627 1.91439 8.6206 2.17475 8.52858C2.43511 8.43656 2.72077 8.57302 2.81279 8.83338C3.05406 9.51598 3.42654 10.1372 3.90031 10.6665C4.90812 11.7925 6.37109 12.5 7.99996 12.5C11.0375 12.5 13.5 10.0376 13.5 7Z" fill="#9E9E9E"/>
</svg>
