<svg width="16" height="16" viewBox="0 0 16 16" fill="none" xmlns="http://www.w3.org/2000/svg">
<path fill-rule="evenodd" clip-rule="evenodd" d="M8 1.5C4.41015 1.5 1.5 4.41015 1.5 8C1.5 11.5899 4.41015 14.5 8 14.5C11.5899 14.5 14.5 11.5899 14.5 8C14.5 4.41015 11.5899 1.5 8 1.5ZM0.5 8C0.5 3.85786 3.85786 0.5 8 0.5C12.1421 0.5 15.5 3.85786 15.5 8C15.5 12.1421 12.1421 15.5 8 15.5C3.85786 15.5 0.5 12.1421 0.5 8ZM8.20025 5.0216C7.85111 4.96171 7.49204 5.02732 7.18664 5.20681C6.88124 5.38629 6.64922 5.66807 6.53166 6.00224C6.44003 6.26273 6.15457 6.39962 5.89408 6.30798C5.63358 6.21635 5.49669 5.93089 5.58833 5.6704C5.78425 5.11345 6.17096 4.64382 6.67996 4.34467C7.18896 4.04553 7.78741 3.93618 8.36931 4.03599C8.95121 4.1358 9.47901 4.43833 9.85923 4.89C10.2394 5.3416 10.4475 5.91314 10.4467 6.50343V6.50298H9.94666L10.4467 6.50373C10.4463 7.42908 9.77593 8.0593 9.25588 8.4155C8.98213 8.603 8.71184 8.74149 8.51185 8.83281L8.5 8.8382V9.83632C8.5 10.1125 8.27614 10.3363 8 10.3363C7.72386 10.3363 7.5 10.1125 7.5 9.83632V8.50298C7.5 8.28959 7.63543 8.09974 7.83713 8.03026L7.83739 8.03017L7.83752 8.03012L7.83754 8.03011L7.83774 8.03004C7.83788 8.03002 7.83917 8.03335 7.99891 8.4998L7.838 8.02995L7.83893 8.02962L7.8503 8.02553C7.86121 8.02154 7.87855 8.01507 7.90141 8.00613C7.94722 7.9882 8.01467 7.96051 8.09648 7.92316C8.26149 7.84781 8.47787 7.73631 8.69079 7.59047C9.14393 7.2801 9.44666 6.91056 9.44666 6.50298L9.44667 6.50224C9.44719 6.148 9.32233 5.80501 9.0942 5.534C8.86607 5.263 8.54939 5.08148 8.20025 5.0216ZM8 10.75C7.58579 10.75 7.25 11.0858 7.25 11.5C7.25 11.9142 7.58579 12.25 8 12.25H8.00769C8.42191 12.25 8.75769 11.9142 8.75769 11.5C8.75769 11.0858 8.42191 10.75 8.00769 10.75H8Z" fill="#4A4A4A"/>
</svg>
