<svg width="15" height="18" viewBox="0 0 15 18" fill="none" xmlns="http://www.w3.org/2000/svg">
<path d="M10 7H7C7.00022 7 6.99978 7 7 7L3.41421 7L6.70711 10.2929C7.09763 10.6834 7.09763 11.3166 6.70711 11.7071C6.31658 12.0976 5.68342 12.0976 5.29289 11.7071L0.293607 6.70782L0.286395 6.70055C0.109902 6.52079 0.000802084 6.27463 4.83962e-06 6.003L0 6L4.84022e-06 5.997C0.000399675 5.8625 0.0273467 5.73425 0.0758792 5.61722C0.123571 5.50195 0.193742 5.39379 0.286395 5.29945L0.293607 5.29218L5.29289 0.292893C5.68342 -0.0976311 6.31658 -0.0976311 6.70711 0.292893C7.09763 0.683417 7.09763 1.31658 6.70711 1.70711L3.41421 5L10 5C12.7614 5 15 7.23858 15 10V17C15 17.5523 14.5523 18 14 18C13.4477 18 13 17.5523 13 17V10C13 8.34315 11.6569 7 10 7Z" fill="#2F2F2F"/>
</svg>
