<svg width="36" height="37" viewBox="0 0 36 37" fill="none" xmlns="http://www.w3.org/2000/svg">
<g filter="url(#filter0_d_283_1755)">
<circle cx="16" cy="16" r="6" fill="#F5F7F6"/>
</g>
<path d="M24.8592 15.9424C24.9563 15.6824 25.1139 15.4432 25.3525 15.2454C26.0875 14.5919 27.2542 14.6477 27.9877 15.3812L32.0015 19.3949C32.3275 19.7209 32.5736 20.0861 32.7001 20.53L33.4985 23.1138L35.1896 24.8048C35.4341 25.0493 35.4395 25.4515 35.2015 25.6895L29.905 30.9859C29.667 31.224 29.2649 31.2186 29.0204 30.9741L27.7571 29.7109L19.8746 28.0174C19.3304 27.9096 18.8634 27.5616 18.576 27.1156C18.2886 26.6695 18.2012 26.1456 18.3154 25.6647C18.526 24.8835 19.1833 24.43 20.3076 24.3244L21.0309 24.2939L16.0188 19.2817C15.652 18.915 15.444 18.3896 15.4574 17.8872C15.4504 17.3644 15.6852 16.8851 16.0626 16.5484C16.7977 15.8949 17.9643 15.9507 18.7182 16.7046L20.0425 18.0289C20.1401 17.8091 20.2779 17.5898 20.4768 17.4316C20.954 17.036 21.6156 16.9041 22.2209 17.073C22.3168 16.7326 22.4938 16.4334 22.772 16.1959C23.3478 15.6608 24.1713 15.6116 24.8592 15.9424Z" fill="white"/>
<path d="M25.3525 15.2454C25.1139 15.4432 24.9563 15.6824 24.8592 15.9424C24.1713 15.6116 23.3478 15.6608 22.772 16.1959C22.4938 16.4334 22.3168 16.7326 22.2209 17.073C21.6156 16.9041 20.954 17.036 20.4768 17.4316C20.2779 17.5898 20.1401 17.8091 20.0425 18.0289L18.7182 16.7046C17.9643 15.9507 16.7977 15.8949 16.0626 16.5484C15.6852 16.8851 15.4504 17.3644 15.4574 17.8872C15.444 18.3896 15.652 18.915 16.0188 19.2817L21.0309 24.2939L20.3076 24.3244C19.1833 24.43 18.526 24.8835 18.3154 25.6647C18.2012 26.1456 18.2886 26.6695 18.576 27.1156C18.8634 27.5616 19.3304 27.9096 19.8746 28.0174L27.7571 29.7109L29.0204 30.9741C29.2649 31.2186 29.667 31.224 29.905 30.9859L35.2015 25.6895C35.4395 25.4515 35.4341 25.0493 35.1896 24.8048L33.4985 23.1138L32.7001 20.53C32.5736 20.0861 32.3275 19.7209 32.0015 19.3949L27.9877 15.3812C27.2542 14.6477 26.0875 14.5919 25.3525 15.2454ZM29.4558 18.4362L31.149 20.2881C31.3324 20.4715 31.4557 20.6742 31.519 20.8962L32.3598 23.6413C32.3812 23.7421 32.4429 23.8434 32.504 23.9045L33.8691 25.2696L29.4455 29.6933L28.4879 28.7357C28.4064 28.6542 28.3051 28.5925 28.164 28.5705L20.1002 26.8545C19.8987 26.8116 19.7362 26.6888 19.6134 26.5264C19.5721 26.4454 19.4692 26.2631 19.5265 26.0427C19.5651 25.9227 19.622 25.6621 20.4449 25.5726L21.8309 25.4906C22.0722 25.4938 22.3145 25.5775 22.4775 25.7405L22.7627 26.0257C23.0072 26.2702 23.4094 26.2756 23.6474 26.0375C23.8854 25.7995 23.8801 25.3974 23.6356 25.1529L22.8817 24.399L22.352 23.8693L16.912 18.4293C16.7897 18.307 16.727 18.1253 16.7045 17.9441C16.7221 17.7634 16.78 17.5832 16.9194 17.4846C17.1778 17.2669 17.6003 17.2927 17.8652 17.5575L19.4544 19.1468L20.4528 20.1451L22.5106 22.2029C22.7551 22.4474 23.1572 22.4528 23.3953 22.2148C23.6333 21.9767 23.6279 21.5746 23.3834 21.3301L21.346 19.2927C21.2237 19.1704 21.161 18.9887 21.1385 18.8074C21.1363 18.6466 21.214 18.4466 21.3534 18.348C21.6119 18.1303 22.0343 18.156 22.2992 18.4209L22.4215 18.5432L22.7678 18.8895L24.3163 20.438C24.5608 20.6825 24.9629 20.6879 25.2009 20.4498C25.439 20.2118 25.4336 19.8097 25.1891 19.5652L23.6407 18.0167C23.5184 17.8945 23.4557 17.7127 23.4331 17.5315C23.4508 17.3508 23.5291 17.191 23.6481 17.072C23.9065 16.8543 24.329 16.8801 24.5939 17.145L24.7976 17.3487L25.3478 17.8988L26.6721 19.2232C26.9166 19.4677 27.3187 19.473 27.5568 19.235C27.7948 18.997 27.7894 18.5948 27.5449 18.3504L26.2206 17.026C26.0983 16.9038 26.0356 16.722 26.0131 16.5408C26.0308 16.3601 26.109 16.2003 26.228 16.0813C26.4865 15.8636 26.909 15.8894 27.1738 16.1543L29.4558 18.4362Z" fill="#2F2F2F"/>
<defs>
<filter id="filter0_d_283_1755" x="0" y="0" width="32" height="32" filterUnits="userSpaceOnUse" color-interpolation-filters="sRGB">
<feFlood flood-opacity="0" result="BackgroundImageFix"/>
<feColorMatrix in="SourceAlpha" type="matrix" values="0 0 0 0 0 0 0 0 0 0 0 0 0 0 0 0 0 0 127 0" result="hardAlpha"/>
<feOffset/>
<feGaussianBlur stdDeviation="5"/>
<feComposite in2="hardAlpha" operator="out"/>
<feColorMatrix type="matrix" values="0 0 0 0 0 0 0 0 0 0.341176 0 0 0 0 1 0 0 0 1 0"/>
<feBlend mode="normal" in2="BackgroundImageFix" result="effect1_dropShadow_283_1755"/>
<feBlend mode="normal" in="SourceGraphic" in2="effect1_dropShadow_283_1755" result="shape"/>
</filter>
</defs>
</svg>
