<svg width="54" height="35" viewBox="0 0 54 35" fill="none" xmlns="http://www.w3.org/2000/svg">
<path d="M50.2975 18.5L44.7491 16.9036L46.1408 22.5069L50.2975 18.5ZM27 20.5C19.8398 20.5 13.3697 19.9974 8.70049 19.1893C6.36184 18.7845 4.49908 18.3071 3.23257 17.7888C2.59706 17.5288 2.14046 17.2699 1.85112 17.0251C1.55757 16.7769 1.5 16.6002 1.5 16.5H0.5C0.5 17.0211 0.806199 17.4511 1.20533 17.7887C1.60868 18.1298 2.17369 18.436 2.85385 18.7144C4.21868 19.2728 6.16353 19.7651 8.52995 20.1747C13.2709 20.9952 19.8008 21.5 27 21.5V20.5ZM1.5 16.5C1.5 16.3998 1.55757 16.2231 1.85112 15.9749C2.14046 15.7301 2.59706 15.4712 3.23257 15.2112C4.49908 14.6929 6.36184 14.2155 8.70049 13.8107C13.3697 13.0026 19.8398 12.5 27 12.5V11.5C19.8008 11.5 13.2709 12.0048 8.52995 12.8253C6.16353 13.2349 4.21868 13.7272 2.85385 14.2856C2.17369 14.564 1.60868 14.8702 1.20533 15.2113C0.806199 15.5489 0.5 15.9789 0.5 16.5H1.5ZM27 12.5C34.1602 12.5 40.6303 13.0026 45.2995 13.8107C47.6382 14.2155 49.5009 14.6929 50.7674 15.2112C51.4029 15.4712 51.8595 15.7301 52.1489 15.9749C52.4424 16.2231 52.5 16.3998 52.5 16.5H53.5C53.5 15.9789 53.1938 15.5489 52.7947 15.2113C52.3913 14.8702 51.8263 14.564 51.1461 14.2856C49.7813 13.7272 47.8365 13.2349 45.47 12.8253C40.7291 12.0048 34.1992 11.5 27 11.5V12.5ZM45.8402 19.0929C41.1373 19.9571 34.4418 20.5 27 20.5V21.5C34.4813 21.5 41.2407 20.9549 46.0209 20.0764L45.8402 19.0929ZM52.5 16.5C52.5 16.6063 52.4344 16.7983 52.0981 17.0668C51.7692 17.3296 51.2538 17.6044 50.5437 17.8776L50.9027 18.8109C51.6555 18.5213 52.2785 18.2026 52.7222 17.8482C53.1586 17.4996 53.5 17.0509 53.5 16.5H52.5Z" fill="#0057FF"/>
<path d="M31.4803 9.88902L31.9744 9.81228L31.9749 9.81587L31.4803 9.88902ZM31.5622 10.4426L32.0568 10.3695L32.0573 10.373L31.5622 10.4426ZM23.835 4.613L25.3365 10.1878L19.7578 8.70076L23.835 4.613ZM22.5 17C22.5 21.3821 23.0557 25.3295 23.9417 28.1646C24.3856 29.5851 24.9038 30.6983 25.4559 31.4455C26.0152 32.2025 26.5428 32.5 27 32.5V33.5C26.0765 33.5 25.2887 32.902 24.6516 32.0398C24.0073 31.1677 23.4481 29.9377 22.9872 28.4628C22.0636 25.5071 21.5 21.4545 21.5 17H22.5ZM27 32.5C27.4572 32.5 27.9848 32.2025 28.5441 31.4455C29.0962 30.6983 29.6144 29.5851 30.0583 28.1646C30.9443 25.3295 31.5 21.3821 31.5 17H32.5C32.5 21.4545 31.9364 25.5071 31.0128 28.4628C30.5519 29.9377 29.9927 31.1677 29.3484 32.0398C28.7113 32.902 27.9235 33.5 27 33.5V32.5ZM30.9862 9.96574C30.5814 7.35887 29.9627 5.19139 29.2212 3.69029C28.8502 2.93906 28.4599 2.37859 28.0705 2.01215C27.6837 1.64809 27.326 1.5 27 1.5V0.5C27.6556 0.5 28.2465 0.804489 28.7559 1.28393C29.2628 1.76099 29.7165 2.43495 30.1178 3.24742C30.9211 4.87373 31.561 7.15075 31.9744 9.81229L30.9862 9.96574ZM31.5 17C31.5 14.6852 31.3449 12.4889 31.067 10.5122L32.0573 10.373C32.3421 12.3987 32.5 14.6416 32.5 17H31.5ZM31.9749 9.81587L32.0568 10.3695L31.0675 10.5158L30.9857 9.96216L31.9749 9.81587ZM27 1.5C26.6347 1.5 26.2269 1.68715 25.7864 2.15547C25.3456 2.62425 24.912 3.33535 24.5112 4.27338L23.5916 3.88047C24.0175 2.88373 24.5069 2.05637 25.058 1.47038C25.6095 0.88393 26.2627 0.5 27 0.5V1.5ZM23.168 9.05019C22.7441 11.3799 22.5 14.0963 22.5 17H21.5C21.5 14.0427 21.7484 11.266 22.1841 8.87117L23.168 9.05019Z" fill="#0057FF"/>
<path d="M34.8592 15.9424C34.9563 15.6824 35.1139 15.4432 35.3525 15.2454C36.0875 14.5919 37.2542 14.6477 37.9877 15.3812L42.0015 19.3949C42.3275 19.7209 42.5736 20.0861 42.7001 20.53L43.4985 23.1138L45.1896 24.8048C45.4341 25.0493 45.4395 25.4515 45.2015 25.6895L39.905 30.9859C39.667 31.224 39.2649 31.2186 39.0204 30.9741L37.7571 29.7109L29.8746 28.0174C29.3304 27.9096 28.8634 27.5616 28.576 27.1156C28.2886 26.6695 28.2012 26.1456 28.3154 25.6647C28.526 24.8835 29.1833 24.43 30.3076 24.3244L31.0309 24.2939L26.0188 19.2817C25.652 18.915 25.444 18.3896 25.4574 17.8872C25.4504 17.3644 25.6852 16.8851 26.0626 16.5484C26.7977 15.8949 27.9643 15.9507 28.7182 16.7046L30.0425 18.0289C30.1401 17.8091 30.2779 17.5898 30.4768 17.4316C30.954 17.036 31.6156 16.9041 32.2209 17.073C32.3168 16.7326 32.4938 16.4334 32.772 16.1959C33.3478 15.6608 34.1713 15.6116 34.8592 15.9424Z" fill="white"/>
<path d="M35.3525 15.2454C35.1139 15.4432 34.9563 15.6824 34.8592 15.9424C34.1713 15.6116 33.3478 15.6608 32.772 16.1959C32.4938 16.4334 32.3168 16.7326 32.2209 17.073C31.6156 16.9041 30.954 17.036 30.4768 17.4316C30.2779 17.5898 30.1401 17.8091 30.0425 18.0289L28.7182 16.7046C27.9643 15.9507 26.7977 15.8949 26.0626 16.5484C25.6852 16.8851 25.4504 17.3644 25.4574 17.8872C25.444 18.3896 25.652 18.915 26.0188 19.2817L31.0309 24.2939L30.3076 24.3244C29.1833 24.43 28.526 24.8835 28.3154 25.6647C28.2012 26.1456 28.2886 26.6695 28.576 27.1156C28.8634 27.5616 29.3304 27.9096 29.8746 28.0174L37.7571 29.7109L39.0204 30.9741C39.2649 31.2186 39.667 31.224 39.905 30.9859L45.2015 25.6895C45.4395 25.4515 45.4341 25.0493 45.1896 24.8048L43.4985 23.1138L42.7001 20.53C42.5736 20.0861 42.3275 19.7209 42.0015 19.3949L37.9877 15.3812C37.2542 14.6477 36.0875 14.5919 35.3525 15.2454ZM39.4558 18.4362L41.149 20.2881C41.3324 20.4715 41.4557 20.6742 41.519 20.8962L42.3598 23.6413C42.3812 23.7421 42.4429 23.8434 42.504 23.9045L43.8691 25.2696L39.4455 29.6933L38.4879 28.7357C38.4064 28.6542 38.3051 28.5925 38.164 28.5705L30.1002 26.8545C29.8987 26.8116 29.7362 26.6888 29.6134 26.5264C29.5721 26.4454 29.4692 26.2631 29.5265 26.0427C29.5651 25.9227 29.622 25.6621 30.4449 25.5726L31.8309 25.4906C32.0722 25.4938 32.3145 25.5775 32.4775 25.7405L32.7627 26.0257C33.0072 26.2702 33.4094 26.2756 33.6474 26.0375C33.8854 25.7995 33.8801 25.3974 33.6356 25.1529L32.8817 24.399L32.352 23.8693L26.912 18.4293C26.7897 18.307 26.727 18.1253 26.7045 17.9441C26.7221 17.7634 26.78 17.5832 26.9194 17.4846C27.1778 17.2669 27.6003 17.2927 27.8652 17.5575L29.4544 19.1468L30.4528 20.1451L32.5106 22.2029C32.7551 22.4474 33.1572 22.4528 33.3953 22.2148C33.6333 21.9767 33.6279 21.5746 33.3834 21.3301L31.346 19.2927C31.2237 19.1704 31.161 18.9887 31.1385 18.8074C31.1363 18.6466 31.214 18.4466 31.3534 18.348C31.6119 18.1303 32.0343 18.156 32.2992 18.4209L32.4215 18.5432L32.7678 18.8895L34.3163 20.438C34.5608 20.6825 34.9629 20.6879 35.2009 20.4498C35.439 20.2118 35.4336 19.8097 35.1891 19.5652L33.6407 18.0167C33.5184 17.8945 33.4557 17.7127 33.4331 17.5315C33.4508 17.3508 33.5291 17.191 33.6481 17.072C33.9065 16.8543 34.329 16.8801 34.5939 17.145L34.7976 17.3487L35.3478 17.8988L36.6721 19.2232C36.9166 19.4677 37.3187 19.473 37.5568 19.235C37.7948 18.997 37.7894 18.5948 37.5449 18.3504L36.2206 17.026C36.0983 16.9038 36.0356 16.722 36.0131 16.5408C36.0308 16.3601 36.109 16.2003 36.228 16.0813C36.4865 15.8636 36.909 15.8894 37.1738 16.1543L39.4558 18.4362Z" fill="#2F2F2F"/>
</svg>
