<svg width="10" height="16" viewBox="0 0 10 16" fill="none" xmlns="http://www.w3.org/2000/svg">
<path fill-rule="evenodd" clip-rule="evenodd" d="M3.47404 2.76276C4.04667 2.42622 4.71992 2.3032 5.37456 2.41549C6.0292 2.52778 6.62298 2.86813 7.05072 3.37626C7.47847 3.88439 7.71258 4.5275 7.71159 5.1917L7.71159 5.1931C7.71159 5.9573 7.14396 6.65018 6.29432 7.23213C5.89509 7.50557 5.48939 7.71464 5.17999 7.85592C5.0266 7.92596 4.90012 7.97787 4.81424 8.01149C4.77137 8.02827 4.73885 8.04039 4.7184 8.04786L4.69709 8.05554L4.69485 8.05633L4.69445 8.05647L4.69375 8.05671C4.31554 8.18699 4.06159 8.54296 4.06159 8.9431V11.4431C4.06159 11.9609 4.48132 12.3806 4.99909 12.3806C5.51686 12.3806 5.93659 11.9609 5.93659 11.4431V9.57164L5.95881 9.56152C6.33378 9.3903 6.84058 9.13062 7.35386 8.77906C8.32907 8.11111 9.5862 6.92925 9.58659 5.19388L9.58658 5.19449L8.64909 5.1931L9.58659 5.1931V5.19388C9.58809 4.0871 9.19792 3.01548 8.48514 2.16876C7.77223 1.32188 6.78261 0.754627 5.69155 0.567481C4.60048 0.380334 3.47839 0.585367 2.52401 1.14626C1.56963 1.70716 0.844558 2.58772 0.477208 3.63199C0.30539 4.12042 0.562053 4.65566 1.05048 4.82747C1.53891 4.99929 2.07414 4.74263 2.24596 4.2542C2.46637 3.62764 2.90142 3.0993 3.47404 2.76276ZM4.69485 8.05633L4.69534 8.05617L4.99909 8.9431C4.69534 8.05617 4.69509 8.05625 4.69485 8.05633ZM4.99989 13.1563C4.22324 13.1563 3.59364 13.7859 3.59364 14.5625C3.59364 15.3392 4.22324 15.9688 4.99989 15.9688H5.01431C5.79096 15.9688 6.42056 15.3392 6.42056 14.5625C6.42056 13.7859 5.79096 13.1563 5.01431 13.1563H4.99989Z" fill="#2F2F2F"/>
</svg>
