<svg width="54" height="35" viewBox="0 0 54 35" fill="none" xmlns="http://www.w3.org/2000/svg">
<path d="M50.2975 18.5L44.7491 16.9036L46.1408 22.5069L50.2975 18.5ZM27 20.5C19.8398 20.5 13.3697 19.9974 8.70049 19.1893C6.36184 18.7845 4.49908 18.3071 3.23257 17.7888C2.59706 17.5288 2.14046 17.2699 1.85112 17.0251C1.55757 16.7769 1.5 16.6002 1.5 16.5H0.5C0.5 17.0211 0.806199 17.4511 1.20533 17.7887C1.60868 18.1298 2.17369 18.436 2.85385 18.7144C4.21868 19.2728 6.16353 19.7651 8.52995 20.1747C13.2709 20.9952 19.8008 21.5 27 21.5V20.5ZM1.5 16.5C1.5 16.3998 1.55757 16.2231 1.85112 15.9749C2.14046 15.7301 2.59706 15.4712 3.23257 15.2112C4.49908 14.6929 6.36184 14.2155 8.70049 13.8107C13.3697 13.0026 19.8398 12.5 27 12.5V11.5C19.8008 11.5 13.2709 12.0048 8.52995 12.8253C6.16353 13.2349 4.21868 13.7272 2.85385 14.2856C2.17369 14.564 1.60868 14.8702 1.20533 15.2113C0.806199 15.5489 0.5 15.9789 0.5 16.5H1.5ZM27 12.5C34.1602 12.5 40.6303 13.0026 45.2995 13.8107C47.6382 14.2155 49.5009 14.6929 50.7674 15.2112C51.4029 15.4712 51.8595 15.7301 52.1489 15.9749C52.4424 16.2231 52.5 16.3998 52.5 16.5H53.5C53.5 15.9789 53.1938 15.5489 52.7947 15.2113C52.3913 14.8702 51.8263 14.564 51.1461 14.2856C49.7813 13.7272 47.8365 13.2349 45.47 12.8253C40.7291 12.0048 34.1992 11.5 27 11.5V12.5ZM45.8402 19.0929C41.1373 19.9571 34.4418 20.5 27 20.5V21.5C34.4813 21.5 41.2407 20.9549 46.0209 20.0764L45.8402 19.0929ZM52.5 16.5C52.5 16.6063 52.4344 16.7983 52.0981 17.0668C51.7692 17.3296 51.2538 17.6044 50.5437 17.8776L50.9027 18.8109C51.6555 18.5213 52.2785 18.2026 52.7222 17.8482C53.1586 17.4996 53.5 17.0509 53.5 16.5H52.5Z" fill="#0057FF"/>
<path d="M31.4803 9.88902L31.9744 9.81228L31.9749 9.81587L31.4803 9.88902ZM31.5622 10.4426L32.0568 10.3695L32.0573 10.373L31.5622 10.4426ZM23.835 4.613L25.3365 10.1878L19.7578 8.70076L23.835 4.613ZM22.5 17C22.5 21.3821 23.0557 25.3295 23.9417 28.1646C24.3856 29.5851 24.9038 30.6983 25.4559 31.4455C26.0152 32.2025 26.5428 32.5 27 32.5V33.5C26.0765 33.5 25.2887 32.902 24.6516 32.0398C24.0073 31.1677 23.4481 29.9377 22.9872 28.4628C22.0636 25.5071 21.5 21.4545 21.5 17H22.5ZM27 32.5C27.4572 32.5 27.9848 32.2025 28.5441 31.4455C29.0962 30.6983 29.6144 29.5851 30.0583 28.1646C30.9443 25.3295 31.5 21.3821 31.5 17H32.5C32.5 21.4545 31.9364 25.5071 31.0128 28.4628C30.5519 29.9377 29.9927 31.1677 29.3484 32.0398C28.7113 32.902 27.9235 33.5 27 33.5V32.5ZM30.9862 9.96574C30.5814 7.35887 29.9627 5.19139 29.2212 3.69029C28.8502 2.93906 28.4599 2.37859 28.0705 2.01215C27.6837 1.64809 27.326 1.5 27 1.5V0.5C27.6556 0.5 28.2465 0.804489 28.7559 1.28393C29.2628 1.76099 29.7165 2.43495 30.1178 3.24742C30.9211 4.87373 31.561 7.15075 31.9744 9.81229L30.9862 9.96574ZM31.5 17C31.5 14.6852 31.3449 12.4889 31.067 10.5122L32.0573 10.373C32.3421 12.3987 32.5 14.6416 32.5 17H31.5ZM31.9749 9.81587L32.0568 10.3695L31.0675 10.5158L30.9857 9.96216L31.9749 9.81587ZM27 1.5C26.6347 1.5 26.2269 1.68715 25.7864 2.15547C25.3456 2.62425 24.912 3.33535 24.5112 4.27338L23.5916 3.88047C24.0175 2.88373 24.5069 2.05637 25.058 1.47038C25.6095 0.88393 26.2627 0.5 27 0.5V1.5ZM23.168 9.05019C22.7441 11.3799 22.5 14.0963 22.5 17H21.5C21.5 14.0427 21.7484 11.266 22.1841 8.87117L23.168 9.05019Z" fill="#0057FF"/>
<g filter="url(#filter0_d_175_1510)">
<path d="M26.2002 27.8999V11.8999L37.8002 23.4999H31.0002L30.6002 23.5999L26.2002 27.8999Z" fill="white"/>
<path d="M35.3 28.6L31.7 30.1L27 19L30.7 17.5L35.3 28.6Z" fill="white"/>
<path d="M30.8745 20.5185L29.0303 21.2927L32.1271 28.6695L33.9713 27.8953L30.8745 20.5185Z" fill="black"/>
<path d="M27.2002 14.3V25.5L30.2002 22.6L30.6002 22.5H35.4002L27.2002 14.3Z" fill="black"/>
</g>
<defs>
<filter id="filter0_d_175_1510" x="14" y="3" width="36" height="36" filterUnits="userSpaceOnUse" color-interpolation-filters="sRGB">
<feFlood flood-opacity="0" result="BackgroundImageFix"/>
<feColorMatrix in="SourceAlpha" type="matrix" values="0 0 0 0 0 0 0 0 0 0 0 0 0 0 0 0 0 0 127 0" result="hardAlpha"/>
<feOffset/>
<feGaussianBlur stdDeviation="2"/>
<feColorMatrix type="matrix" values="0 0 0 0 0 0 0 0 0 0 0 0 0 0 0 0 0 0 0.1 0"/>
<feBlend mode="normal" in2="BackgroundImageFix" result="effect1_dropShadow_175_1510"/>
<feBlend mode="normal" in="SourceGraphic" in2="effect1_dropShadow_175_1510" result="shape"/>
</filter>
</defs>
</svg>
