<svg width="45" height="44" viewBox="0 0 45 44" fill="none" xmlns="http://www.w3.org/2000/svg">
<path fill-rule="evenodd" clip-rule="evenodd" d="M0.342773 14.608C0.342773 2.57831 2.92109 0 14.9508 0H29.7348C41.7645 0 44.3428 2.57831 44.3428 14.608V29.392C44.3428 41.4217 41.7645 44 29.7348 44H14.9508C2.92109 44 0.342773 41.4217 0.342773 29.392V14.608ZM37.5726 26.6275L37.5735 16.3776C37.5369 16.905 37.4049 17.4111 37.1334 17.8725C36.8866 18.2919 36.5403 18.6424 36.1259 18.8925L25.6735 25.2004C23.6134 26.4436 21.0452 26.4451 18.9837 25.2041L8.56129 18.9303C7.7902 18.4661 7.30895 17.6974 7.17827 16.8661C7.1449 16.707 7.12305 16.5447 7.11299 16.3806L7.112 26.63C7.11191 27.5875 7.57275 28.4795 8.33768 29.0272L13.1817 31.9537L18.9985 35.455C21.0578 36.6945 23.6228 36.6945 25.682 35.4549L28.2628 33.9013L28.8119 33.5696C28.9529 33.4722 29.0382 33.3102 29.0382 33.1362V27.8463C29.0382 27.6623 29.1336 27.4993 29.2895 27.4044L32.1966 25.6549C32.2825 25.6027 32.394 25.6308 32.4457 25.7176C32.4627 25.7462 32.4716 25.7789 32.4716 25.8122V30.938C32.4716 31.1255 32.6765 31.241 32.8369 31.1438L36.3992 28.9858C37.1326 28.4355 37.5725 27.5627 37.5726 26.6275ZM19.1133 18.7187L15.034 21.1901L9.3757 17.7708C8.50867 17.2468 8.22414 16.1085 8.74018 15.2281C8.89544 14.9633 9.11326 14.7419 9.37395 14.5839L19.6029 8.38688C21.299 7.35933 23.4133 7.35814 25.1105 8.38377L35.31 14.5474C36.1771 15.0714 36.4616 16.2098 35.9456 17.0901C35.7903 17.3549 35.5725 17.5763 35.3118 17.7343L29.6816 21.1453L25.6601 18.715C23.6427 17.4959 21.1294 17.4973 19.1133 18.7187Z" fill="#E5EAF1"/>
</svg>
