<svg width="14" height="14" viewBox="0 0 14 14" fill="none" xmlns="http://www.w3.org/2000/svg">
<path fill-rule="evenodd" clip-rule="evenodd" d="M0.305588 8.03625C-0.0849355 7.64573 -0.0849359 7.01256 0.305588 6.62204L5.25534 1.67229C5.64586 1.28176 6.27902 1.28176 6.66955 1.67229L7.37666 2.37939C7.76718 2.76992 8.40034 2.76992 8.79087 2.37939L10.2051 0.965181C10.9861 0.184132 12.2525 0.184132 13.0335 0.965181C13.8146 1.74623 13.8146 3.01256 13.0335 3.79361L11.6193 5.20782C11.2288 5.59835 11.2288 6.23151 11.6193 6.62204L12.3264 7.32914C12.7169 7.71967 12.7169 8.35283 12.3264 8.74336L7.37666 13.6931C6.98613 14.0836 6.35297 14.0836 5.96244 13.6931L0.305588 8.03625ZM8.08375 8.74337L5.25533 11.5718L6.66955 12.986L9.49796 10.1576L5.96244 6.62206L3.13403 9.45047L4.54823 10.8647L7.37664 8.03626L7.73019 8.38981L8.08375 8.74337ZM2.42692 8.74337L5.25533 5.91495L3.84111 4.50073L1.0127 7.32914L2.42692 8.74337ZM4.54822 3.79362L5.96244 2.3794L6.66955 3.0865C7.4506 3.86755 8.71693 3.86755 9.49798 3.0865L10.9122 1.67229C11.3027 1.28176 11.9359 1.28176 12.3264 1.67229C12.7169 2.06281 12.7169 2.69598 12.3264 3.0865L10.9122 4.50071C10.1311 5.28176 10.1311 6.54809 10.9122 7.32914L11.6193 8.03625L10.2051 9.45047L4.54822 3.79362Z" fill="#2F2F2F"/>
</svg>
