<svg width="162" height="34" viewBox="0 0 162 34" fill="none" xmlns="http://www.w3.org/2000/svg">
<path d="M9.33223 9.47186C10.5349 9.47186 11.6451 9.70314 12.6627 10.1657C13.7035 10.6051 14.5939 11.2296 15.334 12.0391C16.0741 12.8254 16.6523 13.7621 17.0686 14.8492C17.4849 15.9131 17.6931 17.081 17.6931 18.3531C17.6931 19.6251 17.4849 20.8047 17.0686 21.8917C16.6523 22.9787 16.0625 23.927 15.2993 24.7365C14.5592 25.5228 13.6803 26.1473 12.6627 26.6099C11.6451 27.0493 10.5349 27.269 9.33223 27.269C8.15269 27.269 7.06567 27.0609 6.07115 26.6446C5.09977 26.2282 4.29028 25.6269 3.64269 24.8406V33.132H0V9.85347H3.36515V12.3166C3.98962 11.4146 4.82223 10.7208 5.863 10.2351C6.90377 9.72627 8.06018 9.47186 9.33223 9.47186ZM8.74246 12.8023C8.118 12.8023 7.49354 12.918 6.86908 13.1492C6.26774 13.3574 5.72423 13.6928 5.23854 14.1553C4.75285 14.5948 4.35967 15.1614 4.059 15.8552C3.75833 16.5491 3.608 17.3817 3.608 18.3531C3.608 19.3245 3.74677 20.1571 4.02431 20.8509C4.32498 21.5448 4.71815 22.123 5.20385 22.5856C5.68954 23.0481 6.23305 23.395 6.83439 23.6263C7.45885 23.8345 8.09487 23.9386 8.74246 23.9386C9.45944 23.9386 10.1302 23.8113 10.7546 23.5569C11.4022 23.2794 11.9573 22.8978 12.4198 22.4121C12.9055 21.9264 13.2756 21.3482 13.53 20.6775C13.8075 19.9836 13.9463 19.2204 13.9463 18.3878C13.9463 17.5552 13.8075 16.8035 13.53 16.1328C13.2756 15.4389 12.9171 14.8492 12.4545 14.3635C11.992 13.8778 11.4369 13.4962 10.7893 13.2186C10.1648 12.9411 9.48256 12.8023 8.74246 12.8023Z" fill="#0057FF"/>
<path d="M25.5287 26.8874H21.886V0.868164H25.5287V26.8874Z" fill="#0057FF"/>
<path d="M38.0816 9.47186C39.3305 9.47186 40.4638 9.7147 41.4814 10.2004C42.5222 10.6861 43.3664 11.3684 44.014 12.2472V9.85347H47.4138V26.8874H43.9099V24.6671C43.2623 25.4997 42.4297 26.1473 41.412 26.6099C40.3944 27.0493 39.2843 27.269 38.0816 27.269C36.8558 27.269 35.7341 27.0493 34.7164 26.6099C33.6988 26.1473 32.8199 25.5228 32.0798 24.7365C31.3397 23.927 30.7615 22.9903 30.3452 21.9264C29.9289 20.8394 29.7207 19.6598 29.7207 18.3878C29.7207 17.1157 29.9289 15.9362 30.3452 14.8492C30.7615 13.7621 31.3397 12.8254 32.0798 12.0391C32.8199 11.2296 33.6988 10.6051 34.7164 10.1657C35.7341 9.70314 36.8558 9.47186 38.0816 9.47186ZM38.6367 12.8023C37.8966 12.8023 37.2027 12.9411 36.5551 13.2186C35.9307 13.4962 35.3871 13.8893 34.9246 14.3982C34.462 14.8839 34.092 15.4736 33.8144 16.1675C33.56 16.8382 33.4328 17.5783 33.4328 18.3878C33.4328 19.2204 33.56 19.9836 33.8144 20.6775C34.092 21.3482 34.462 21.9264 34.9246 22.4121C35.4103 22.8978 35.9654 23.2794 36.5898 23.5569C37.2143 23.8113 37.8966 23.9386 38.6367 23.9386C39.2611 23.9386 39.874 23.8345 40.4754 23.6263C41.0998 23.395 41.6549 23.0597 42.1406 22.6202C42.6263 22.1577 43.0195 21.5795 43.3201 20.8856C43.6208 20.1918 43.7711 19.3592 43.7711 18.3878C43.7711 17.4164 43.6208 16.5838 43.3201 15.8899C43.0426 15.173 42.661 14.5948 42.1753 14.1553C41.6896 13.6928 41.1345 13.3574 40.51 13.1492C39.9087 12.918 39.2843 12.8023 38.6367 12.8023Z" fill="#0057FF"/>
<path d="M61.1818 9.47186C62.1763 9.47186 63.0667 9.64532 63.8531 9.99224C64.6395 10.316 65.3102 10.7786 65.8652 11.3799C66.4203 11.9581 66.8366 12.6635 67.1142 13.4962C67.4148 14.3288 67.5652 15.2423 67.5652 16.2369V26.8874H63.8878V16.7225C63.8878 15.543 63.5524 14.5948 62.8817 13.8778C62.2341 13.1377 61.3437 12.7676 60.2104 12.7676C59.0771 12.7676 58.1404 13.1377 57.4003 13.8778C56.6833 14.5948 56.3249 15.543 56.3249 16.7225V26.8874H52.6822V9.85347H56.0473V11.5881C56.6487 10.9174 57.3772 10.397 58.2329 10.0269C59.1118 9.65688 60.0948 9.47186 61.1818 9.47186Z" fill="#0057FF"/>
<path d="M80.5816 9.47186C81.8305 9.47186 82.9985 9.70314 84.0855 10.1657C85.1725 10.6283 86.1208 11.2643 86.9303 12.0738C87.7629 12.8601 88.4105 13.7968 88.873 14.8839C89.3587 15.9478 89.6016 17.1042 89.6016 18.3531C89.6016 19.602 89.3587 20.77 88.873 21.857C88.4105 22.944 87.7629 23.8923 86.9303 24.7018C86.1208 25.4881 85.1609 26.1126 84.0508 26.5752C82.9638 27.0377 81.7958 27.269 80.5469 27.269C79.2979 27.269 78.13 27.0377 77.0429 26.5752C75.9559 26.1126 74.9961 25.4881 74.1635 24.7018C73.354 23.8923 72.718 22.944 72.2554 21.857C71.7928 20.77 71.5616 19.602 71.5616 18.3531C71.5616 17.1042 71.7928 15.9478 72.2554 14.8839C72.718 13.7968 73.354 12.8601 74.1635 12.0738C74.9961 11.2643 75.9559 10.6283 77.0429 10.1657C78.1531 9.70314 79.3326 9.47186 80.5816 9.47186ZM80.5816 12.8023C79.8183 12.8023 79.1014 12.9527 78.4306 13.2533C77.7831 13.5309 77.228 13.924 76.7654 14.4329C76.3028 14.9185 75.9444 15.5083 75.6899 16.2022C75.4355 16.8729 75.3083 17.6014 75.3083 18.3878C75.3083 19.1741 75.4355 19.9027 75.6899 20.5734C75.9444 21.2441 76.3028 21.8339 76.7654 22.3427C77.2511 22.8284 77.8062 23.21 78.4306 23.4876C79.0782 23.7651 79.7836 23.9039 80.5469 23.9039C81.3101 23.9039 82.0155 23.7651 82.6631 23.4876C83.3107 23.21 83.8658 22.8284 84.3283 22.3427C84.814 21.8339 85.1841 21.2441 85.4385 20.5734C85.716 19.9027 85.8548 19.1741 85.8548 18.3878C85.8548 17.6014 85.716 16.8729 85.4385 16.2022C85.1841 15.5083 84.814 14.9185 84.3283 14.4329C83.8658 13.924 83.3107 13.5309 82.6631 13.2533C82.0155 12.9527 81.3217 12.8023 80.5816 12.8023Z" fill="#0057FF"/>
<path d="M103.11 9.47186C104.313 9.47186 105.423 9.70314 106.44 10.1657C107.481 10.6051 108.372 11.2296 109.112 12.0391C109.852 12.8254 110.43 13.7621 110.846 14.8492C111.263 15.9131 111.471 17.081 111.471 18.3531C111.471 19.6251 111.263 20.8047 110.846 21.8917C110.43 22.9787 109.84 23.927 109.077 24.7365C108.337 25.5228 107.458 26.1473 106.44 26.6099C105.423 27.0493 104.313 27.269 103.11 27.269C101.93 27.269 100.843 27.0609 99.8488 26.6446C98.8774 26.2282 98.0679 25.6269 97.4203 24.8406V33.132H93.7776V9.85347H97.1428V12.3166C97.7673 11.4146 98.5999 10.7208 99.6406 10.2351C100.681 9.72627 101.838 9.47186 103.11 9.47186ZM102.52 12.8023C101.896 12.8023 101.271 12.918 100.647 13.1492C100.045 13.3574 99.5019 13.6928 99.0162 14.1553C98.5305 14.5948 98.1373 15.1614 97.8367 15.8552C97.536 16.5491 97.3857 17.3817 97.3857 18.3531C97.3857 19.3245 97.5244 20.1571 97.802 20.8509C98.1026 21.5448 98.4958 22.123 98.9815 22.5856C99.4672 23.0481 100.011 23.395 100.612 23.6263C101.236 23.8345 101.873 23.9386 102.52 23.9386C103.237 23.9386 103.908 23.8113 104.532 23.5569C105.18 23.2794 105.735 22.8978 106.198 22.4121C106.683 21.9264 107.053 21.3482 107.308 20.6775C107.585 19.9836 107.724 19.2204 107.724 18.3878C107.724 17.5552 107.585 16.8035 107.308 16.1328C107.053 15.4389 106.695 14.8492 106.232 14.3635C105.77 13.8778 105.215 13.4962 104.567 13.2186C103.942 12.9411 103.26 12.8023 102.52 12.8023Z" fill="#0057FF"/>
<path d="M119.306 26.8874H115.664V0.868164H119.306V26.8874Z" fill="#0057FF"/>
<path d="M131.859 9.47186C133.108 9.47186 134.241 9.7147 135.259 10.2004C136.3 10.6861 137.144 11.3684 137.792 12.2472V9.85347H141.191V26.8874H137.688V24.6671C137.04 25.4997 136.207 26.1473 135.19 26.6099C134.172 27.0493 133.062 27.269 131.859 27.269C130.633 27.269 129.512 27.0493 128.494 26.6099C127.476 26.1473 126.598 25.5228 125.857 24.7365C125.117 23.927 124.539 22.9903 124.123 21.9264C123.707 20.8394 123.498 19.6598 123.498 18.3878C123.498 17.1157 123.707 15.9362 124.123 14.8492C124.539 13.7621 125.117 12.8254 125.857 12.0391C126.598 11.2296 127.476 10.6051 128.494 10.1657C129.512 9.70314 130.633 9.47186 131.859 9.47186ZM132.414 12.8023C131.674 12.8023 130.98 12.9411 130.333 13.2186C129.708 13.4962 129.165 13.8893 128.702 14.3982C128.24 14.8839 127.87 15.4736 127.592 16.1675C127.338 16.8382 127.21 17.5783 127.21 18.3878C127.21 19.2204 127.338 19.9836 127.592 20.6775C127.87 21.3482 128.24 21.9264 128.702 22.4121C129.188 22.8978 129.743 23.2794 130.367 23.5569C130.992 23.8113 131.674 23.9386 132.414 23.9386C133.039 23.9386 133.652 23.8345 134.253 23.6263C134.877 23.395 135.433 23.0597 135.918 22.6202C136.404 22.1577 136.797 21.5795 137.098 20.8856C137.398 20.1918 137.549 19.3592 137.549 18.3878C137.549 17.4164 137.398 16.5838 137.098 15.8899C136.82 15.173 136.439 14.5948 135.953 14.1553C135.467 13.6928 134.912 13.3574 134.288 13.1492C133.686 12.918 133.062 12.8023 132.414 12.8023Z" fill="#0057FF"/>
<path d="M154.959 9.47186C155.954 9.47186 156.844 9.64532 157.631 9.99224C158.417 10.316 159.088 10.7786 159.643 11.3799C160.198 11.9581 160.614 12.6635 160.892 13.4962C161.192 14.3288 161.343 15.2423 161.343 16.2369V26.8874H157.665V16.7225C157.665 15.543 157.33 14.5948 156.659 13.8778C156.012 13.1377 155.121 12.7676 153.988 12.7676C152.855 12.7676 151.918 13.1377 151.178 13.8778C150.461 14.5948 150.103 15.543 150.103 16.7225V26.8874H146.46V9.85347H149.825V11.5881C150.426 10.9174 151.155 10.397 152.011 10.0269C152.889 9.65688 153.872 9.47186 154.959 9.47186Z" fill="#0057FF"/>
</svg>
