<svg width="24" height="24" viewBox="0 0 24 24" fill="none" xmlns="http://www.w3.org/2000/svg">
<rect x="0.5" y="0.5" width="23" height="23" rx="3.5" fill="white" stroke="#E5EAF1"/>
<path d="M17.3333 10H11.3333C10.597 10 10 10.597 10 11.3333V17.3333C10 18.0697 10.597 18.6667 11.3333 18.6667H17.3333C18.0697 18.6667 18.6667 18.0697 18.6667 17.3333V11.3333C18.6667 10.597 18.0697 10 17.3333 10Z" fill="#4A4A4A" stroke="#4A4A4A" stroke-linecap="round" stroke-linejoin="round"/>
<path d="M7.33301 14H6.66634C6.31272 14 5.97358 13.8596 5.72353 13.6095C5.47348 13.3595 5.33301 13.0203 5.33301 12.6667V6.66671C5.33301 6.31309 5.47348 5.97395 5.72353 5.7239C5.97358 5.47385 6.31272 5.33337 6.66634 5.33337H12.6663C13.02 5.33337 13.3591 5.47385 13.6092 5.7239C13.8592 5.97395 13.9997 6.31309 13.9997 6.66671V7.33337" stroke="#4A4A4A" stroke-linecap="round" stroke-linejoin="round"/>
</svg>
