<svg width="24" height="24" viewBox="0 0 24 24" fill="none" xmlns="http://www.w3.org/2000/svg">
<rect x="0.5" y="0.5" width="23" height="23" rx="3.5" fill="white" stroke="#E5EAF1"/>
<path fill-rule="evenodd" clip-rule="evenodd" d="M11.6464 4.64645C11.8417 4.45118 12.1583 4.45118 12.3536 4.64645L15.3536 7.64645C15.5488 7.84171 15.5488 8.15829 15.3536 8.35355C15.1583 8.54882 14.8417 8.54882 14.6464 8.35355L12.5 6.20711V14C12.5 14.2761 12.2761 14.5 12 14.5C11.7239 14.5 11.5 14.2761 11.5 14V6.20711L9.35355 8.35355C9.15829 8.54882 8.84171 8.54882 8.64645 8.35355C8.45118 8.15829 8.45118 7.84171 8.64645 7.64645L11.6464 4.64645ZM7 11.5C7.27614 11.5 7.5 11.7239 7.5 12V17.5H16.5V12C16.5 11.7239 16.7239 11.5 17 11.5C17.2761 11.5 17.5 11.7239 17.5 12V18C17.5 18.2761 17.2761 18.5 17 18.5H7C6.72386 18.5 6.5 18.2761 6.5 18V12C6.5 11.7239 6.72386 11.5 7 11.5Z" fill="#4A4A4A"/>
</svg>
